<svg xmlns="http://www.w3.org/2000/svg" width="147" height="99" viewBox="0 0 147 99">
  <rect width="100%" height="100%" fill="#0a0a0a"/>
  <rect x="60" y="3" width="3" height="3" fill="#2a2a2a"/>
  <rect x="63" y="3" width="3" height="3" fill="#2a2a2a"/>
  <rect x="66" y="3" width="3" height="3" fill="#2a2a2a"/>
  <rect x="69" y="3" width="3" height="3" fill="#2a2a2a"/>
  <rect x="72" y="3" width="3" height="3" fill="#2a2a2a"/>
  <rect x="75" y="3" width="3" height="3" fill="#2a2a2a"/>
  <rect x="78" y="3" width="3" height="3" fill="#2a2a2a"/>
  <rect x="81" y="3" width="3" height="3" fill="#2a2a2a"/>
  <rect x="84" y="3" width="3" height="3" fill="#2a2a2a"/>
  <rect x="87" y="3" width="3" height="3" fill="#2a2a2a"/>
  <rect x="90" y="3" width="3" height="3" fill="#2a2a2a"/>
  <rect x="93" y="3" width="3" height="3" fill="#2a2a2a"/>
  <rect x="57" y="6" width="3" height="3" fill="#2a2a2a"/>
  <rect x="60" y="6" width="3" height="3" fill="#2a2a2a"/>
  <rect x="63" y="6" width="3" height="3" fill="#2a2a2a"/>
  <rect x="66" y="6" width="3" height="3" fill="#2a2a2a"/>
  <rect x="69" y="6" width="3" height="3" fill="#2a2a2a"/>
  <rect x="72" y="6" width="3" height="3" fill="#2a2a2a"/>
  <rect x="75" y="6" width="3" height="3" fill="#2a2a2a"/>
  <rect x="78" y="6" width="3" height="3" fill="#2a2a2a"/>
  <rect x="81" y="6" width="3" height="3" fill="#2a2a2a"/>
  <rect x="84" y="6" width="3" height="3" fill="#2a2a2a"/>
  <rect x="87" y="6" width="3" height="3" fill="#2a2a2a"/>
  <rect x="90" y="6" width="3" height="3" fill="#2a2a2a"/>
  <rect x="93" y="6" width="3" height="3" fill="#2a2a2a"/>
  <rect x="96" y="6" width="3" height="3" fill="#2a2a2a"/>
  <rect x="54" y="9" width="3" height="3" fill="#2a2a2a"/>
  <rect x="57" y="9" width="3" height="3" fill="#2a2a2a"/>
  <rect x="60" y="9" width="3" height="3" fill="#2a2a2a"/>
  <rect x="63" y="9" width="3" height="3" fill="#2a2a2a"/>
  <rect x="66" y="9" width="3" height="3" fill="#2a2a2a"/>
  <rect x="69" y="9" width="3" height="3" fill="#2a2a2a"/>
  <rect x="72" y="9" width="3" height="3" fill="#2a2a2a"/>
  <rect x="75" y="9" width="3" height="3" fill="#2a2a2a"/>
  <rect x="78" y="9" width="3" height="3" fill="#2a2a2a"/>
  <rect x="81" y="9" width="3" height="3" fill="#2a2a2a"/>
  <rect x="84" y="9" width="3" height="3" fill="#2a2a2a"/>
  <rect x="87" y="9" width="3" height="3" fill="#2a2a2a"/>
  <rect x="90" y="9" width="3" height="3" fill="#2a2a2a"/>
  <rect x="93" y="9" width="3" height="3" fill="#2a2a2a"/>
  <rect x="96" y="9" width="3" height="3" fill="#2a2a2a"/>
  <rect x="99" y="9" width="3" height="3" fill="#2a2a2a"/>
  <rect x="51" y="12" width="3" height="3" fill="#2a2a2a"/>
  <rect x="54" y="12" width="3" height="3" fill="#2a2a2a"/>
  <rect x="57" y="12" width="3" height="3" fill="#2a2a2a"/>
  <rect x="60" y="12" width="3" height="3" fill="#2a2a2a"/>
  <rect x="63" y="12" width="3" height="3" fill="#2a2a2a"/>
  <rect x="66" y="12" width="3" height="3" fill="#2a2a2a"/>
  <rect x="69" y="12" width="3" height="3" fill="#2a2a2a"/>
  <rect x="72" y="12" width="3" height="3" fill="#2a2a2a"/>
  <rect x="75" y="12" width="3" height="3" fill="#2a2a2a"/>
  <rect x="78" y="12" width="3" height="3" fill="#2a2a2a"/>
  <rect x="81" y="12" width="3" height="3" fill="#2a2a2a"/>
  <rect x="84" y="12" width="3" height="3" fill="#2a2a2a"/>
  <rect x="87" y="12" width="3" height="3" fill="#2a2a2a"/>
  <rect x="90" y="12" width="3" height="3" fill="#2a2a2a"/>
  <rect x="93" y="12" width="3" height="3" fill="#2a2a2a"/>
  <rect x="96" y="12" width="3" height="3" fill="#2a2a2a"/>
  <rect x="99" y="12" width="3" height="3" fill="#2a2a2a"/>
  <rect x="102" y="12" width="3" height="3" fill="#2a2a2a"/>
  <rect x="48" y="15" width="3" height="3" fill="#2a2a2a"/>
  <rect x="51" y="15" width="3" height="3" fill="#2a2a2a"/>
  <rect x="54" y="15" width="3" height="3" fill="#2a2a2a"/>
  <rect x="57" y="15" width="3" height="3" fill="#2a2a2a"/>
  <rect x="60" y="15" width="3" height="3" fill="#2a2a2a"/>
  <rect x="63" y="15" width="3" height="3" fill="#2a2a2a"/>
  <rect x="66" y="15" width="3" height="3" fill="#2a2a2a"/>
  <rect x="69" y="15" width="3" height="3" fill="#2a2a2a"/>
  <rect x="72" y="15" width="3" height="3" fill="#2a2a2a"/>
  <rect x="75" y="15" width="3" height="3" fill="#2a2a2a"/>
  <rect x="78" y="15" width="3" height="3" fill="#2a2a2a"/>
  <rect x="81" y="15" width="3" height="3" fill="#2a2a2a"/>
  <rect x="84" y="15" width="3" height="3" fill="#2a2a2a"/>
  <rect x="87" y="15" width="3" height="3" fill="#2a2a2a"/>
  <rect x="90" y="15" width="3" height="3" fill="#2a2a2a"/>
  <rect x="93" y="15" width="3" height="3" fill="#2a2a2a"/>
  <rect x="96" y="15" width="3" height="3" fill="#2a2a2a"/>
  <rect x="99" y="15" width="3" height="3" fill="#2a2a2a"/>
  <rect x="102" y="15" width="3" height="3" fill="#2a2a2a"/>
  <rect x="105" y="15" width="3" height="3" fill="#2a2a2a"/>
  <rect x="45" y="18" width="3" height="3" fill="#2a2a2a"/>
  <rect x="48" y="18" width="3" height="3" fill="#2a2a2a"/>
  <rect x="51" y="18" width="3" height="3" fill="#2a2a2a"/>
  <rect x="54" y="18" width="3" height="3" fill="#2a2a2a"/>
  <rect x="57" y="18" width="3" height="3" fill="#2a2a2a"/>
  <rect x="60" y="18" width="3" height="3" fill="#2a2a2a"/>
  <rect x="63" y="18" width="3" height="3" fill="#2a2a2a"/>
  <rect x="66" y="18" width="3" height="3" fill="#2a2a2a"/>
  <rect x="69" y="18" width="3" height="3" fill="#2a2a2a"/>
  <rect x="72" y="18" width="3" height="3" fill="#2a2a2a"/>
  <rect x="75" y="18" width="3" height="3" fill="#2a2a2a"/>
  <rect x="78" y="18" width="3" height="3" fill="#2a2a2a"/>
  <rect x="81" y="18" width="3" height="3" fill="#2a2a2a"/>
  <rect x="84" y="18" width="3" height="3" fill="#2a2a2a"/>
  <rect x="87" y="18" width="3" height="3" fill="#2a2a2a"/>
  <rect x="90" y="18" width="3" height="3" fill="#2a2a2a"/>
  <rect x="93" y="18" width="3" height="3" fill="#2a2a2a"/>
  <rect x="96" y="18" width="3" height="3" fill="#2a2a2a"/>
  <rect x="99" y="18" width="3" height="3" fill="#2a2a2a"/>
  <rect x="102" y="18" width="3" height="3" fill="#2a2a2a"/>
  <rect x="105" y="18" width="3" height="3" fill="#2a2a2a"/>
  <rect x="108" y="18" width="3" height="3" fill="#2a2a2a"/>
  <rect x="42" y="21" width="3" height="3" fill="#2a2a2a"/>
  <rect x="45" y="21" width="3" height="3" fill="#2a2a2a"/>
  <rect x="48" y="21" width="3" height="3" fill="#2a2a2a"/>
  <rect x="51" y="21" width="3" height="3" fill="#2a2a2a"/>
  <rect x="54" y="21" width="3" height="3" fill="#2a2a2a"/>
  <rect x="57" y="21" width="3" height="3" fill="#ff0000"/>
  <rect x="60" y="21" width="3" height="3" fill="#ff0000"/>
  <rect x="63" y="21" width="3" height="3" fill="#ff0000"/>
  <rect x="66" y="21" width="3" height="3" fill="#ff0000"/>
  <rect x="69" y="21" width="3" height="3" fill="#2a2a2a"/>
  <rect x="72" y="21" width="3" height="3" fill="#2a2a2a"/>
  <rect x="75" y="21" width="3" height="3" fill="#2a2a2a"/>
  <rect x="78" y="21" width="3" height="3" fill="#2a2a2a"/>
  <rect x="81" y="21" width="3" height="3" fill="#ff0000"/>
  <rect x="84" y="21" width="3" height="3" fill="#ff0000"/>
  <rect x="87" y="21" width="3" height="3" fill="#ff0000"/>
  <rect x="90" y="21" width="3" height="3" fill="#ff0000"/>
  <rect x="93" y="21" width="3" height="3" fill="#2a2a2a"/>
  <rect x="96" y="21" width="3" height="3" fill="#2a2a2a"/>
  <rect x="99" y="21" width="3" height="3" fill="#2a2a2a"/>
  <rect x="102" y="21" width="3" height="3" fill="#2a2a2a"/>
  <rect x="105" y="21" width="3" height="3" fill="#2a2a2a"/>
  <rect x="108" y="21" width="3" height="3" fill="#2a2a2a"/>
  <rect x="39" y="24" width="3" height="3" fill="#2a2a2a"/>
  <rect x="42" y="24" width="3" height="3" fill="#2a2a2a"/>
  <rect x="45" y="24" width="3" height="3" fill="#2a2a2a"/>
  <rect x="48" y="24" width="3" height="3" fill="#2a2a2a"/>
  <rect x="51" y="24" width="3" height="3" fill="#2a2a2a"/>
  <rect x="54" y="24" width="3" height="3" fill="#2a2a2a"/>
  <rect x="57" y="24" width="3" height="3" fill="#cc0000"/>
  <rect x="60" y="24" width="3" height="3" fill="#cc0000"/>
  <rect x="63" y="24" width="3" height="3" fill="#cc0000"/>
  <rect x="66" y="24" width="3" height="3" fill="#ff0000"/>
  <rect x="69" y="24" width="3" height="3" fill="#2a2a2a"/>
  <rect x="72" y="24" width="3" height="3" fill="#2a2a2a"/>
  <rect x="75" y="24" width="3" height="3" fill="#2a2a2a"/>
  <rect x="78" y="24" width="3" height="3" fill="#2a2a2a"/>
  <rect x="81" y="24" width="3" height="3" fill="#cc0000"/>
  <rect x="84" y="24" width="3" height="3" fill="#cc0000"/>
  <rect x="87" y="24" width="3" height="3" fill="#cc0000"/>
  <rect x="90" y="24" width="3" height="3" fill="#cc0000"/>
  <rect x="93" y="24" width="3" height="3" fill="#ff0000"/>
  <rect x="96" y="24" width="3" height="3" fill="#2a2a2a"/>
  <rect x="99" y="24" width="3" height="3" fill="#2a2a2a"/>
  <rect x="102" y="24" width="3" height="3" fill="#2a2a2a"/>
  <rect x="105" y="24" width="3" height="3" fill="#2a2a2a"/>
  <rect x="108" y="24" width="3" height="3" fill="#2a2a2a"/>
  <rect x="36" y="27" width="3" height="3" fill="#2a2a2a"/>
  <rect x="39" y="27" width="3" height="3" fill="#2a2a2a"/>
  <rect x="42" y="27" width="3" height="3" fill="#2a2a2a"/>
  <rect x="45" y="27" width="3" height="3" fill="#2a2a2a"/>
  <rect x="48" y="27" width="3" height="3" fill="#2a2a2a"/>
  <rect x="51" y="27" width="3" height="3" fill="#2a2a2a"/>
  <rect x="54" y="27" width="3" height="3" fill="#2a2a2a"/>
  <rect x="57" y="27" width="3" height="3" fill="#cc0000"/>
  <rect x="60" y="27" width="3" height="3" fill="#cc0000"/>
  <rect x="63" y="27" width="3" height="3" fill="#cc0000"/>
  <rect x="66" y="27" width="3" height="3" fill="#cc0000"/>
  <rect x="69" y="27" width="3" height="3" fill="#2a2a2a"/>
  <rect x="72" y="27" width="3" height="3" fill="#2a2a2a"/>
  <rect x="75" y="27" width="3" height="3" fill="#2a2a2a"/>
  <rect x="78" y="27" width="3" height="3" fill="#2a2a2a"/>
  <rect x="81" y="27" width="3" height="3" fill="#cc0000"/>
  <rect x="84" y="27" width="3" height="3" fill="#cc0000"/>
  <rect x="87" y="27" width="3" height="3" fill="#cc0000"/>
  <rect x="90" y="27" width="3" height="3" fill="#cc0000"/>
  <rect x="93" y="27" width="3" height="3" fill="#2a2a2a"/>
  <rect x="96" y="27" width="3" height="3" fill="#2a2a2a"/>
  <rect x="99" y="27" width="3" height="3" fill="#2a2a2a"/>
  <rect x="102" y="27" width="3" height="3" fill="#2a2a2a"/>
  <rect x="105" y="27" width="3" height="3" fill="#2a2a2a"/>
  <rect x="108" y="27" width="3" height="3" fill="#2a2a2a"/>
  <rect x="111" y="27" width="3" height="3" fill="#2a2a2a"/>
  <rect x="33" y="30" width="3" height="3" fill="#2a2a2a"/>
  <rect x="36" y="30" width="3" height="3" fill="#2a2a2a"/>
  <rect x="39" y="30" width="3" height="3" fill="#2a2a2a"/>
  <rect x="42" y="30" width="3" height="3" fill="#2a2a2a"/>
  <rect x="45" y="30" width="3" height="3" fill="#2a2a2a"/>
  <rect x="48" y="30" width="3" height="3" fill="#2a2a2a"/>
  <rect x="51" y="30" width="3" height="3" fill="#2a2a2a"/>
  <rect x="54" y="30" width="3" height="3" fill="#2a2a2a"/>
  <rect x="57" y="30" width="3" height="3" fill="#2a2a2a"/>
  <rect x="60" y="30" width="3" height="3" fill="#2a2a2a"/>
  <rect x="63" y="30" width="3" height="3" fill="#2a2a2a"/>
  <rect x="66" y="30" width="3" height="3" fill="#2a2a2a"/>
  <rect x="69" y="30" width="3" height="3" fill="#2a2a2a"/>
  <rect x="72" y="30" width="3" height="3" fill="#2a2a2a"/>
  <rect x="75" y="30" width="3" height="3" fill="#2a2a2a"/>
  <rect x="78" y="30" width="3" height="3" fill="#2a2a2a"/>
  <rect x="81" y="30" width="3" height="3" fill="#2a2a2a"/>
  <rect x="84" y="30" width="3" height="3" fill="#2a2a2a"/>
  <rect x="87" y="30" width="3" height="3" fill="#2a2a2a"/>
  <rect x="90" y="30" width="3" height="3" fill="#2a2a2a"/>
  <rect x="93" y="30" width="3" height="3" fill="#2a2a2a"/>
  <rect x="96" y="30" width="3" height="3" fill="#2a2a2a"/>
  <rect x="99" y="30" width="3" height="3" fill="#2a2a2a"/>
  <rect x="102" y="30" width="3" height="3" fill="#2a2a2a"/>
  <rect x="105" y="30" width="3" height="3" fill="#2a2a2a"/>
  <rect x="108" y="30" width="3" height="3" fill="#2a2a2a"/>
  <rect x="111" y="30" width="3" height="3" fill="#2a2a2a"/>
  <rect x="114" y="30" width="3" height="3" fill="#2a2a2a"/>
  <rect x="30" y="33" width="3" height="3" fill="#2a2a2a"/>
  <rect x="33" y="33" width="3" height="3" fill="#2a2a2a"/>
  <rect x="36" y="33" width="3" height="3" fill="#2a2a2a"/>
  <rect x="39" y="33" width="3" height="3" fill="#2a2a2a"/>
  <rect x="42" y="33" width="3" height="3" fill="#2a2a2a"/>
  <rect x="45" y="33" width="3" height="3" fill="#2a2a2a"/>
  <rect x="48" y="33" width="3" height="3" fill="#2a2a2a"/>
  <rect x="51" y="33" width="3" height="3" fill="#2a2a2a"/>
  <rect x="54" y="33" width="3" height="3" fill="#2a2a2a"/>
  <rect x="57" y="33" width="3" height="3" fill="#2a2a2a"/>
  <rect x="60" y="33" width="3" height="3" fill="#2a2a2a"/>
  <rect x="63" y="33" width="3" height="3" fill="#2a2a2a"/>
  <rect x="66" y="33" width="3" height="3" fill="#2a2a2a"/>
  <rect x="69" y="33" width="3" height="3" fill="#2a2a2a"/>
  <rect x="72" y="33" width="3" height="3" fill="#2a2a2a"/>
  <rect x="75" y="33" width="3" height="3" fill="#2a2a2a"/>
  <rect x="78" y="33" width="3" height="3" fill="#2a2a2a"/>
  <rect x="81" y="33" width="3" height="3" fill="#2a2a2a"/>
  <rect x="84" y="33" width="3" height="3" fill="#2a2a2a"/>
  <rect x="87" y="33" width="3" height="3" fill="#2a2a2a"/>
  <rect x="90" y="33" width="3" height="3" fill="#2a2a2a"/>
  <rect x="93" y="33" width="3" height="3" fill="#2a2a2a"/>
  <rect x="96" y="33" width="3" height="3" fill="#2a2a2a"/>
  <rect x="99" y="33" width="3" height="3" fill="#2a2a2a"/>
  <rect x="102" y="33" width="3" height="3" fill="#2a2a2a"/>
  <rect x="105" y="33" width="3" height="3" fill="#2a2a2a"/>
  <rect x="108" y="33" width="3" height="3" fill="#2a2a2a"/>
  <rect x="111" y="33" width="3" height="3" fill="#2a2a2a"/>
  <rect x="114" y="33" width="3" height="3" fill="#2a2a2a"/>
  <rect x="27" y="36" width="3" height="3" fill="#3a3a3a"/>
  <rect x="30" y="36" width="3" height="3" fill="#2a2a2a"/>
  <rect x="33" y="36" width="3" height="3" fill="#2a2a2a"/>
  <rect x="36" y="36" width="3" height="3" fill="#2a2a2a"/>
  <rect x="39" y="36" width="3" height="3" fill="#2a2a2a"/>
  <rect x="42" y="36" width="3" height="3" fill="#2a2a2a"/>
  <rect x="45" y="36" width="3" height="3" fill="#2a2a2a"/>
  <rect x="48" y="36" width="3" height="3" fill="#2a2a2a"/>
  <rect x="51" y="36" width="3" height="3" fill="#2a2a2a"/>
  <rect x="54" y="36" width="3" height="3" fill="#2a2a2a"/>
  <rect x="57" y="36" width="3" height="3" fill="#2a2a2a"/>
  <rect x="60" y="36" width="3" height="3" fill="#2a2a2a"/>
  <rect x="63" y="36" width="3" height="3" fill="#2a2a2a"/>
  <rect x="66" y="36" width="3" height="3" fill="#2a2a2a"/>
  <rect x="69" y="36" width="3" height="3" fill="#2a2a2a"/>
  <rect x="72" y="36" width="3" height="3" fill="#2a2a2a"/>
  <rect x="75" y="36" width="3" height="3" fill="#2a2a2a"/>
  <rect x="78" y="36" width="3" height="3" fill="#2a2a2a"/>
  <rect x="81" y="36" width="3" height="3" fill="#2a2a2a"/>
  <rect x="84" y="36" width="3" height="3" fill="#2a2a2a"/>
  <rect x="87" y="36" width="3" height="3" fill="#2a2a2a"/>
  <rect x="90" y="36" width="3" height="3" fill="#2a2a2a"/>
  <rect x="93" y="36" width="3" height="3" fill="#2a2a2a"/>
  <rect x="96" y="36" width="3" height="3" fill="#2a2a2a"/>
  <rect x="99" y="36" width="3" height="3" fill="#2a2a2a"/>
  <rect x="102" y="36" width="3" height="3" fill="#2a2a2a"/>
  <rect x="105" y="36" width="3" height="3" fill="#2a2a2a"/>
  <rect x="108" y="36" width="3" height="3" fill="#2a2a2a"/>
  <rect x="111" y="36" width="3" height="3" fill="#2a2a2a"/>
  <rect x="114" y="36" width="3" height="3" fill="#3a3a3a"/>
  <rect x="24" y="39" width="3" height="3" fill="#3a3a3a"/>
  <rect x="27" y="39" width="3" height="3" fill="#3a3a3a"/>
  <rect x="30" y="39" width="3" height="3" fill="#2a2a2a"/>
  <rect x="33" y="39" width="3" height="3" fill="#2a2a2a"/>
  <rect x="36" y="39" width="3" height="3" fill="#2a2a2a"/>
  <rect x="39" y="39" width="3" height="3" fill="#2a2a2a"/>
  <rect x="42" y="39" width="3" height="3" fill="#2a2a2a"/>
  <rect x="45" y="39" width="3" height="3" fill="#2a2a2a"/>
  <rect x="48" y="39" width="3" height="3" fill="#2a2a2a"/>
  <rect x="51" y="39" width="3" height="3" fill="#2a2a2a"/>
  <rect x="54" y="39" width="3" height="3" fill="#2a2a2a"/>
  <rect x="57" y="39" width="3" height="3" fill="#2a2a2a"/>
  <rect x="60" y="39" width="3" height="3" fill="#2a2a2a"/>
  <rect x="63" y="39" width="3" height="3" fill="#2a2a2a"/>
  <rect x="66" y="39" width="3" height="3" fill="#2a2a2a"/>
  <rect x="69" y="39" width="3" height="3" fill="#2a2a2a"/>
  <rect x="72" y="39" width="3" height="3" fill="#2a2a2a"/>
  <rect x="75" y="39" width="3" height="3" fill="#2a2a2a"/>
  <rect x="78" y="39" width="3" height="3" fill="#2a2a2a"/>
  <rect x="81" y="39" width="3" height="3" fill="#2a2a2a"/>
  <rect x="84" y="39" width="3" height="3" fill="#2a2a2a"/>
  <rect x="87" y="39" width="3" height="3" fill="#2a2a2a"/>
  <rect x="90" y="39" width="3" height="3" fill="#2a2a2a"/>
  <rect x="93" y="39" width="3" height="3" fill="#2a2a2a"/>
  <rect x="96" y="39" width="3" height="3" fill="#2a2a2a"/>
  <rect x="99" y="39" width="3" height="3" fill="#2a2a2a"/>
  <rect x="102" y="39" width="3" height="3" fill="#2a2a2a"/>
  <rect x="105" y="39" width="3" height="3" fill="#2a2a2a"/>
  <rect x="108" y="39" width="3" height="3" fill="#2a2a2a"/>
  <rect x="111" y="39" width="3" height="3" fill="#2a2a2a"/>
  <rect x="114" y="39" width="3" height="3" fill="#2a2a2a"/>
  <rect x="117" y="39" width="3" height="3" fill="#3a3a3a"/>
  <rect x="120" y="39" width="3" height="3" fill="#3a3a3a"/>
  <rect x="21" y="42" width="3" height="3" fill="#3a3a3a"/>
  <rect x="24" y="42" width="3" height="3" fill="#3a3a3a"/>
  <rect x="27" y="42" width="3" height="3" fill="#3a3a3a"/>
  <rect x="30" y="42" width="3" height="3" fill="#3a3a3a"/>
  <rect x="33" y="42" width="3" height="3" fill="#2a2a2a"/>
  <rect x="36" y="42" width="3" height="3" fill="#2a2a2a"/>
  <rect x="39" y="42" width="3" height="3" fill="#2a2a2a"/>
  <rect x="42" y="42" width="3" height="3" fill="#2a2a2a"/>
  <rect x="45" y="42" width="3" height="3" fill="#2a2a2a"/>
  <rect x="48" y="42" width="3" height="3" fill="#2a2a2a"/>
  <rect x="51" y="42" width="3" height="3" fill="#2a2a2a"/>
  <rect x="54" y="42" width="3" height="3" fill="#2a2a2a"/>
  <rect x="57" y="42" width="3" height="3" fill="#2a2a2a"/>
  <rect x="60" y="42" width="3" height="3" fill="#2a2a2a"/>
  <rect x="63" y="42" width="3" height="3" fill="#2a2a2a"/>
  <rect x="66" y="42" width="3" height="3" fill="#2a2a2a"/>
  <rect x="69" y="42" width="3" height="3" fill="#2a2a2a"/>
  <rect x="72" y="42" width="3" height="3" fill="#2a2a2a"/>
  <rect x="75" y="42" width="3" height="3" fill="#2a2a2a"/>
  <rect x="78" y="42" width="3" height="3" fill="#2a2a2a"/>
  <rect x="81" y="42" width="3" height="3" fill="#2a2a2a"/>
  <rect x="84" y="42" width="3" height="3" fill="#2a2a2a"/>
  <rect x="87" y="42" width="3" height="3" fill="#2a2a2a"/>
  <rect x="90" y="42" width="3" height="3" fill="#2a2a2a"/>
  <rect x="93" y="42" width="3" height="3" fill="#2a2a2a"/>
  <rect x="96" y="42" width="3" height="3" fill="#2a2a2a"/>
  <rect x="99" y="42" width="3" height="3" fill="#2a2a2a"/>
  <rect x="102" y="42" width="3" height="3" fill="#2a2a2a"/>
  <rect x="105" y="42" width="3" height="3" fill="#2a2a2a"/>
  <rect x="108" y="42" width="3" height="3" fill="#2a2a2a"/>
  <rect x="111" y="42" width="3" height="3" fill="#2a2a2a"/>
  <rect x="114" y="42" width="3" height="3" fill="#3a3a3a"/>
  <rect x="117" y="42" width="3" height="3" fill="#3a3a3a"/>
  <rect x="120" y="42" width="3" height="3" fill="#3a3a3a"/>
  <rect x="18" y="45" width="3" height="3" fill="#3a3a3a"/>
  <rect x="21" y="45" width="3" height="3" fill="#3a3a3a"/>
  <rect x="24" y="45" width="3" height="3" fill="#3a3a3a"/>
  <rect x="27" y="45" width="3" height="3" fill="#3a3a3a"/>
  <rect x="36" y="45" width="3" height="3" fill="#2a2a2a"/>
  <rect x="39" y="45" width="3" height="3" fill="#2a2a2a"/>
  <rect x="42" y="45" width="3" height="3" fill="#2a2a2a"/>
  <rect x="45" y="45" width="3" height="3" fill="#2a2a2a"/>
  <rect x="48" y="45" width="3" height="3" fill="#2a2a2a"/>
  <rect x="51" y="45" width="3" height="3" fill="#2a2a2a"/>
  <rect x="54" y="45" width="3" height="3" fill="#2a2a2a"/>
  <rect x="57" y="45" width="3" height="3" fill="#2a2a2a"/>
  <rect x="60" y="45" width="3" height="3" fill="#2a2a2a"/>
  <rect x="63" y="45" width="3" height="3" fill="#2a2a2a"/>
  <rect x="66" y="45" width="3" height="3" fill="#2a2a2a"/>
  <rect x="69" y="45" width="3" height="3" fill="#2a2a2a"/>
  <rect x="72" y="45" width="3" height="3" fill="#2a2a2a"/>
  <rect x="75" y="45" width="3" height="3" fill="#2a2a2a"/>
  <rect x="78" y="45" width="3" height="3" fill="#2a2a2a"/>
  <rect x="81" y="45" width="3" height="3" fill="#2a2a2a"/>
  <rect x="84" y="45" width="3" height="3" fill="#2a2a2a"/>
  <rect x="87" y="45" width="3" height="3" fill="#2a2a2a"/>
  <rect x="90" y="45" width="3" height="3" fill="#2a2a2a"/>
  <rect x="93" y="45" width="3" height="3" fill="#2a2a2a"/>
  <rect x="96" y="45" width="3" height="3" fill="#2a2a2a"/>
  <rect x="99" y="45" width="3" height="3" fill="#2a2a2a"/>
  <rect x="102" y="45" width="3" height="3" fill="#2a2a2a"/>
  <rect x="105" y="45" width="3" height="3" fill="#2a2a2a"/>
  <rect x="108" y="45" width="3" height="3" fill="#2a2a2a"/>
  <rect x="117" y="45" width="3" height="3" fill="#3a3a3a"/>
  <rect x="120" y="45" width="3" height="3" fill="#3a3a3a"/>
  <rect x="123" y="45" width="3" height="3" fill="#3a3a3a"/>
  <rect x="126" y="45" width="3" height="3" fill="#3a3a3a"/>
  <rect x="15" y="48" width="3" height="3" fill="#3a3a3a"/>
  <rect x="18" y="48" width="3" height="3" fill="#3a3a3a"/>
  <rect x="21" y="48" width="3" height="3" fill="#3a3a3a"/>
  <rect x="24" y="48" width="3" height="3" fill="#3a3a3a"/>
  <rect x="39" y="48" width="3" height="3" fill="#2a2a2a"/>
  <rect x="42" y="48" width="3" height="3" fill="#2a2a2a"/>
  <rect x="45" y="48" width="3" height="3" fill="#2a2a2a"/>
  <rect x="48" y="48" width="3" height="3" fill="#2a2a2a"/>
  <rect x="51" y="48" width="3" height="3" fill="#2a2a2a"/>
  <rect x="54" y="48" width="3" height="3" fill="#2a2a2a"/>
  <rect x="57" y="48" width="3" height="3" fill="#2a2a2a"/>
  <rect x="60" y="48" width="3" height="3" fill="#2a2a2a"/>
  <rect x="63" y="48" width="3" height="3" fill="#2a2a2a"/>
  <rect x="66" y="48" width="3" height="3" fill="#2a2a2a"/>
  <rect x="69" y="48" width="3" height="3" fill="#2a2a2a"/>
  <rect x="72" y="48" width="3" height="3" fill="#2a2a2a"/>
  <rect x="75" y="48" width="3" height="3" fill="#2a2a2a"/>
  <rect x="78" y="48" width="3" height="3" fill="#2a2a2a"/>
  <rect x="81" y="48" width="3" height="3" fill="#2a2a2a"/>
  <rect x="84" y="48" width="3" height="3" fill="#2a2a2a"/>
  <rect x="87" y="48" width="3" height="3" fill="#2a2a2a"/>
  <rect x="90" y="48" width="3" height="3" fill="#2a2a2a"/>
  <rect x="93" y="48" width="3" height="3" fill="#2a2a2a"/>
  <rect x="96" y="48" width="3" height="3" fill="#2a2a2a"/>
  <rect x="99" y="48" width="3" height="3" fill="#2a2a2a"/>
  <rect x="102" y="48" width="3" height="3" fill="#2a2a2a"/>
  <rect x="105" y="48" width="3" height="3" fill="#2a2a2a"/>
  <rect x="120" y="48" width="3" height="3" fill="#3a3a3a"/>
  <rect x="123" y="48" width="3" height="3" fill="#3a3a3a"/>
  <rect x="126" y="48" width="3" height="3" fill="#3a3a3a"/>
  <rect x="129" y="48" width="3" height="3" fill="#3a3a3a"/>
  <rect x="12" y="51" width="3" height="3" fill="#3a3a3a"/>
  <rect x="15" y="51" width="3" height="3" fill="#3a3a3a"/>
  <rect x="18" y="51" width="3" height="3" fill="#3a3a3a"/>
  <rect x="21" y="51" width="3" height="3" fill="#3a3a3a"/>
  <rect x="42" y="51" width="3" height="3" fill="#2a2a2a"/>
  <rect x="45" y="51" width="3" height="3" fill="#2a2a2a"/>
  <rect x="48" y="51" width="3" height="3" fill="#2a2a2a"/>
  <rect x="51" y="51" width="3" height="3" fill="#2a2a2a"/>
  <rect x="54" y="51" width="3" height="3" fill="#2a2a2a"/>
  <rect x="57" y="51" width="3" height="3" fill="#2a2a2a"/>
  <rect x="60" y="51" width="3" height="3" fill="#2a2a2a"/>
  <rect x="63" y="51" width="3" height="3" fill="#2a2a2a"/>
  <rect x="66" y="51" width="3" height="3" fill="#2a2a2a"/>
  <rect x="69" y="51" width="3" height="3" fill="#2a2a2a"/>
  <rect x="72" y="51" width="3" height="3" fill="#2a2a2a"/>
  <rect x="75" y="51" width="3" height="3" fill="#2a2a2a"/>
  <rect x="78" y="51" width="3" height="3" fill="#2a2a2a"/>
  <rect x="81" y="51" width="3" height="3" fill="#2a2a2a"/>
  <rect x="84" y="51" width="3" height="3" fill="#2a2a2a"/>
  <rect x="87" y="51" width="3" height="3" fill="#2a2a2a"/>
  <rect x="90" y="51" width="3" height="3" fill="#2a2a2a"/>
  <rect x="93" y="51" width="3" height="3" fill="#2a2a2a"/>
  <rect x="96" y="51" width="3" height="3" fill="#2a2a2a"/>
  <rect x="99" y="51" width="3" height="3" fill="#2a2a2a"/>
  <rect x="102" y="51" width="3" height="3" fill="#2a2a2a"/>
  <rect x="123" y="51" width="3" height="3" fill="#3a3a3a"/>
  <rect x="126" y="51" width="3" height="3" fill="#3a3a3a"/>
  <rect x="129" y="51" width="3" height="3" fill="#3a3a3a"/>
  <rect x="132" y="51" width="3" height="3" fill="#3a3a3a"/>
  <rect x="9" y="54" width="3" height="3" fill="#3a3a3a"/>
  <rect x="12" y="54" width="3" height="3" fill="#3a3a3a"/>
  <rect x="15" y="54" width="3" height="3" fill="#3a3a3a"/>
  <rect x="45" y="54" width="3" height="3" fill="#2a2a2a"/>
  <rect x="48" y="54" width="3" height="3" fill="#2a2a2a"/>
  <rect x="51" y="54" width="3" height="3" fill="#2a2a2a"/>
  <rect x="54" y="54" width="3" height="3" fill="#2a2a2a"/>
  <rect x="57" y="54" width="3" height="3" fill="#2a2a2a"/>
  <rect x="60" y="54" width="3" height="3" fill="#2a2a2a"/>
  <rect x="63" y="54" width="3" height="3" fill="#2a2a2a"/>
  <rect x="66" y="54" width="3" height="3" fill="#2a2a2a"/>
  <rect x="69" y="54" width="3" height="3" fill="#2a2a2a"/>
  <rect x="72" y="54" width="3" height="3" fill="#2a2a2a"/>
  <rect x="75" y="54" width="3" height="3" fill="#2a2a2a"/>
  <rect x="78" y="54" width="3" height="3" fill="#2a2a2a"/>
  <rect x="81" y="54" width="3" height="3" fill="#2a2a2a"/>
  <rect x="84" y="54" width="3" height="3" fill="#2a2a2a"/>
  <rect x="87" y="54" width="3" height="3" fill="#2a2a2a"/>
  <rect x="90" y="54" width="3" height="3" fill="#2a2a2a"/>
  <rect x="93" y="54" width="3" height="3" fill="#2a2a2a"/>
  <rect x="96" y="54" width="3" height="3" fill="#2a2a2a"/>
  <rect x="99" y="54" width="3" height="3" fill="#2a2a2a"/>
  <rect x="129" y="54" width="3" height="3" fill="#3a3a3a"/>
  <rect x="132" y="54" width="3" height="3" fill="#3a3a3a"/>
  <rect x="135" y="54" width="3" height="3" fill="#3a3a3a"/>
  <rect x="6" y="57" width="3" height="3" fill="#3a3a3a"/>
  <rect x="9" y="57" width="3" height="3" fill="#3a3a3a"/>
  <rect x="48" y="57" width="3" height="3" fill="#2a2a2a"/>
  <rect x="51" y="57" width="3" height="3" fill="#2a2a2a"/>
  <rect x="54" y="57" width="3" height="3" fill="#2a2a2a"/>
  <rect x="57" y="57" width="3" height="3" fill="#2a2a2a"/>
  <rect x="60" y="57" width="3" height="3" fill="#2a2a2a"/>
  <rect x="63" y="57" width="3" height="3" fill="#2a2a2a"/>
  <rect x="66" y="57" width="3" height="3" fill="#2a2a2a"/>
  <rect x="69" y="57" width="3" height="3" fill="#2a2a2a"/>
  <rect x="72" y="57" width="3" height="3" fill="#2a2a2a"/>
  <rect x="75" y="57" width="3" height="3" fill="#2a2a2a"/>
  <rect x="78" y="57" width="3" height="3" fill="#2a2a2a"/>
  <rect x="81" y="57" width="3" height="3" fill="#2a2a2a"/>
  <rect x="84" y="57" width="3" height="3" fill="#2a2a2a"/>
  <rect x="87" y="57" width="3" height="3" fill="#2a2a2a"/>
  <rect x="90" y="57" width="3" height="3" fill="#2a2a2a"/>
  <rect x="93" y="57" width="3" height="3" fill="#2a2a2a"/>
  <rect x="96" y="57" width="3" height="3" fill="#2a2a2a"/>
  <rect x="135" y="57" width="3" height="3" fill="#3a3a3a"/>
  <rect x="138" y="57" width="3" height="3" fill="#3a3a3a"/>
  <rect x="3" y="60" width="3" height="3" fill="#3a3a3a"/>
  <rect x="51" y="60" width="3" height="3" fill="#2a2a2a"/>
  <rect x="54" y="60" width="3" height="3" fill="#2a2a2a"/>
  <rect x="57" y="60" width="3" height="3" fill="#2a2a2a"/>
  <rect x="60" y="60" width="3" height="3" fill="#2a2a2a"/>
  <rect x="63" y="60" width="3" height="3" fill="#2a2a2a"/>
  <rect x="66" y="60" width="3" height="3" fill="#2a2a2a"/>
  <rect x="69" y="60" width="3" height="3" fill="#2a2a2a"/>
  <rect x="72" y="60" width="3" height="3" fill="#2a2a2a"/>
  <rect x="75" y="60" width="3" height="3" fill="#2a2a2a"/>
  <rect x="78" y="60" width="3" height="3" fill="#2a2a2a"/>
  <rect x="81" y="60" width="3" height="3" fill="#2a2a2a"/>
  <rect x="84" y="60" width="3" height="3" fill="#2a2a2a"/>
  <rect x="87" y="60" width="3" height="3" fill="#2a2a2a"/>
  <rect x="90" y="60" width="3" height="3" fill="#2a2a2a"/>
  <rect x="93" y="60" width="3" height="3" fill="#2a2a2a"/>
  <rect x="141" y="60" width="3" height="3" fill="#3a3a3a"/>
  <rect x="54" y="63" width="3" height="3" fill="#2a2a2a"/>
  <rect x="57" y="63" width="3" height="3" fill="#2a2a2a"/>
  <rect x="60" y="63" width="3" height="3" fill="#2a2a2a"/>
  <rect x="63" y="63" width="3" height="3" fill="#2a2a2a"/>
  <rect x="66" y="63" width="3" height="3" fill="#2a2a2a"/>
  <rect x="69" y="63" width="3" height="3" fill="#2a2a2a"/>
  <rect x="72" y="63" width="3" height="3" fill="#2a2a2a"/>
  <rect x="75" y="63" width="3" height="3" fill="#2a2a2a"/>
  <rect x="78" y="63" width="3" height="3" fill="#2a2a2a"/>
  <rect x="81" y="63" width="3" height="3" fill="#2a2a2a"/>
  <rect x="84" y="63" width="3" height="3" fill="#2a2a2a"/>
  <rect x="87" y="63" width="3" height="3" fill="#2a2a2a"/>
  <rect x="90" y="63" width="3" height="3" fill="#2a2a2a"/>
  <rect x="57" y="66" width="3" height="3" fill="#1a1a1a"/>
  <rect x="60" y="66" width="3" height="3" fill="#1a1a1a"/>
  <rect x="63" y="66" width="3" height="3" fill="#1a1a1a"/>
  <rect x="66" y="66" width="3" height="3" fill="#1a1a1a"/>
  <rect x="69" y="66" width="3" height="3" fill="#1a1a1a"/>
  <rect x="72" y="66" width="3" height="3" fill="#1a1a1a"/>
  <rect x="75" y="66" width="3" height="3" fill="#1a1a1a"/>
  <rect x="78" y="66" width="3" height="3" fill="#1a1a1a"/>
  <rect x="81" y="66" width="3" height="3" fill="#1a1a1a"/>
  <rect x="84" y="66" width="3" height="3" fill="#1a1a1a"/>
  <rect x="87" y="66" width="3" height="3" fill="#1a1a1a"/>
  <rect x="54" y="69" width="3" height="3" fill="#1a1a1a"/>
  <rect x="57" y="69" width="3" height="3" fill="#1a1a1a"/>
  <rect x="87" y="69" width="3" height="3" fill="#1a1a1a"/>
  <rect x="90" y="69" width="3" height="3" fill="#1a1a1a"/>
  <rect x="51" y="72" width="3" height="3" fill="#1a1a1a"/>
  <rect x="54" y="72" width="3" height="3" fill="#1a1a1a"/>
  <rect x="90" y="72" width="3" height="3" fill="#1a1a1a"/>
  <rect x="93" y="72" width="3" height="3" fill="#1a1a1a"/>
  <rect x="48" y="75" width="3" height="3" fill="#1a1a1a"/>
  <rect x="51" y="75" width="3" height="3" fill="#1a1a1a"/>
  <rect x="93" y="75" width="3" height="3" fill="#1a1a1a"/>
  <rect x="96" y="75" width="3" height="3" fill="#1a1a1a"/>
  <rect x="45" y="78" width="3" height="3" fill="#1a1a1a"/>
  <rect x="48" y="78" width="3" height="3" fill="#1a1a1a"/>
  <rect x="96" y="78" width="3" height="3" fill="#1a1a1a"/>
  <rect x="99" y="78" width="3" height="3" fill="#1a1a1a"/>
  <rect x="42" y="81" width="3" height="3" fill="#1a1a1a"/>
  <rect x="45" y="81" width="3" height="3" fill="#1a1a1a"/>
  <rect x="99" y="81" width="3" height="3" fill="#1a1a1a"/>
  <rect x="102" y="81" width="3" height="3" fill="#1a1a1a"/>
  <rect x="39" y="84" width="3" height="3" fill="#1a1a1a"/>
  <rect x="42" y="84" width="3" height="3" fill="#1a1a1a"/>
  <rect x="102" y="84" width="3" height="3" fill="#1a1a1a"/>
  <rect x="105" y="84" width="3" height="3" fill="#1a1a1a"/>
  <rect x="36" y="87" width="3" height="3" fill="#1a1a1a"/>
  <rect x="39" y="87" width="3" height="3" fill="#1a1a1a"/>
  <rect x="105" y="87" width="3" height="3" fill="#1a1a1a"/>
  <rect x="108" y="87" width="3" height="3" fill="#1a1a1a"/>
  <rect x="33" y="90" width="3" height="3" fill="#1a1a1a"/>
  <rect x="36" y="90" width="3" height="3" fill="#1a1a1a"/>
  <rect x="108" y="90" width="3" height="3" fill="#1a1a1a"/>
  <rect x="111" y="90" width="3" height="3" fill="#1a1a1a"/>
  <rect x="30" y="93" width="3" height="3" fill="#1a1a1a"/>
  <rect x="33" y="93" width="3" height="3" fill="#1a1a1a"/>
  <rect x="111" y="93" width="3" height="3" fill="#1a1a1a"/>
  <rect x="114" y="93" width="3" height="3" fill="#1a1a1a"/>
</svg>